<?xml version="1.0" standalone="no"?>
<!DOCTYPE svg PUBLIC "-//W3C//DTD SVG 20010904//EN"
 "http://www.w3.org/TR/2001/REC-SVG-20010904/DTD/svg10.dtd">
<svg version="1.0" xmlns="http://www.w3.org/2000/svg"
 width="300.000000pt" height="300.000000pt" viewBox="0 0 300.000000 300.000000"
 preserveAspectRatio="xMidYMid meet">
<metadata>
Created by potrace 1.11, written by Peter Selinger 2001-2013
</metadata>
<g transform="translate(0.000000,300.000000) scale(0.100000,-0.100000)"
fill="#000000" stroke="none">
<path d="M1229 2896 c-2 -2 -20 -6 -39 -9 -315 -43 -551 -328 -553 -667 -1
-137 33 -265 129 -485 24 -55 44 -103 44 -106 0 -4 -51 -35 -112 -68 -234
-127 -321 -187 -435 -299 -226 -224 -307 -503 -229 -790 48 -176 213 -313 431
-358 104 -22 331 -27 433 -10 238 39 460 130 657 269 78 55 100 66 107 49 6
-14 127 -111 203 -162 102 -69 218 -125 305 -149 90 -24 260 -22 355 4 231 62
395 233 460 477 l13 47 -31 10 c-46 17 -51 14 -75 -35 -65 -134 -213 -215
-392 -215 -79 0 -106 7 -186 46 -104 51 -364 258 -364 290 0 6 21 38 46 71
182 234 281 444 339 719 18 85 18 81 3 83 -13 0 -31 5 -75 18 -17 5 -23 2 -23
-10 0 -19 -35 -124 -62 -186 -78 -176 -197 -363 -330 -513 l-34 -38 -29 33
c-165 184 -325 390 -427 551 -44 69 -108 184 -108 193 0 5 57 36 127 69 418
196 577 367 576 620 0 262 -155 455 -428 532 -45 13 -286 28 -296 19z m243
-158 c119 -51 198 -201 198 -375 0 -217 -124 -376 -422 -541 -32 -18 -62 -32
-67 -32 -9 0 -58 104 -97 209 -26 70 -45 141 -60 231 -28 164 22 336 129 441
96 94 203 117 319 67z m-532 -1350 c29 -51 61 -106 70 -123 9 -16 49 -82 89
-145 39 -63 77 -124 84 -135 10 -16 71 -102 144 -204 20 -27 115 -142 150
-180 l22 -24 -22 -17 c-123 -96 -283 -180 -392 -206 -207 -49 -396 -5 -522
123 -95 95 -143 217 -144 363 -2 153 55 286 181 423 66 72 254 217 281 217 4
0 30 -42 59 -92z"/>
</g>
</svg>
